<svg width="184" height="185" viewBox="0 0 184 185" fill="none" xmlns="http://www.w3.org/2000/svg">
<rect width="184" height="185" fill="#F7F1E8"/>
<path d="M23.648 48.4H79.52C80.416 48.4 81.248 48.272 82.016 48.016C82.784 47.7173 83.4453 47.4187 84 47.12C84.5973 46.8213 85.0027 46.672 85.216 46.672C85.344 46.672 85.4507 46.7573 85.536 46.928C85.6213 47.056 85.7067 47.4187 85.792 48.016L89.824 72.592C89.9093 72.8907 89.9307 73.1253 89.888 73.296C89.8453 73.4667 89.76 73.5733 89.632 73.616C89.504 73.6587 89.3547 73.6373 89.184 73.552C89.056 73.4667 88.9493 73.3173 88.864 73.104C86.0907 66.4053 83.552 61.392 81.248 58.064C78.944 54.6933 76.7467 52.4533 74.656 51.344C72.5653 50.192 70.5173 49.616 68.512 49.616H60.832V134.48C60.832 134.992 61.024 135.397 61.408 135.696C61.8347 135.952 62.4747 136.144 63.328 136.272L68.448 137.04C69.0027 137.125 69.28 137.296 69.28 137.552C69.28 137.851 69.0667 138 68.64 138H35.104C34.8907 138 34.72 137.957 34.592 137.872C34.5067 137.787 34.464 137.68 34.464 137.552C34.464 137.296 34.72 137.125 35.232 137.04L40.416 136.272C41.2267 136.144 41.8453 135.952 42.272 135.696C42.6987 135.397 42.912 134.992 42.912 134.48V49.616H35.168C33.2053 49.616 31.2 50.256 29.152 51.536C27.104 52.7733 24.9067 55.0773 22.56 58.448C20.256 61.8187 17.696 66.704 14.88 73.104C14.752 73.3173 14.624 73.4667 14.496 73.552C14.368 73.6373 14.24 73.6587 14.112 73.616C13.9413 73.5733 13.8347 73.4667 13.792 73.296C13.792 73.1253 13.8133 72.8907 13.856 72.592L17.888 48.016C17.9733 47.4187 18.0587 47.056 18.144 46.928C18.272 46.7573 18.4 46.672 18.528 46.672C18.6987 46.672 19.0187 46.8213 19.488 47.12C19.9573 47.4187 20.5547 47.7173 21.28 48.016C22.0053 48.272 22.7947 48.4 23.648 48.4ZM103.273 48.4H159.145C160.041 48.4 160.873 48.272 161.641 48.016C162.409 47.7173 163.07 47.4187 163.625 47.12C164.222 46.8213 164.628 46.672 164.841 46.672C164.969 46.672 165.076 46.7573 165.161 46.928C165.246 47.056 165.332 47.4187 165.417 48.016L169.449 72.592C169.534 72.8907 169.556 73.1253 169.513 73.296C169.47 73.4667 169.385 73.5733 169.257 73.616C169.129 73.6587 168.98 73.6373 168.809 73.552C168.681 73.4667 168.574 73.3173 168.489 73.104C165.716 66.4053 163.177 61.392 160.873 58.064C158.569 54.6933 156.372 52.4533 154.281 51.344C152.19 50.192 150.142 49.616 148.137 49.616H140.457V134.48C140.457 134.992 140.649 135.397 141.033 135.696C141.46 135.952 142.1 136.144 142.953 136.272L148.073 137.04C148.628 137.125 148.905 137.296 148.905 137.552C148.905 137.851 148.692 138 148.265 138H114.729C114.516 138 114.345 137.957 114.217 137.872C114.132 137.787 114.089 137.68 114.089 137.552C114.089 137.296 114.345 137.125 114.857 137.04L120.041 136.272C120.852 136.144 121.47 135.952 121.897 135.696C122.324 135.397 122.537 134.992 122.537 134.48V49.616H114.793C112.83 49.616 110.825 50.256 108.777 51.536C106.729 52.7733 104.532 55.0773 102.185 58.448C99.881 61.8187 97.321 66.704 94.505 73.104C94.377 73.3173 94.249 73.4667 94.121 73.552C93.993 73.6373 93.865 73.6587 93.737 73.616C93.5663 73.5733 93.4597 73.4667 93.417 73.296C93.417 73.1253 93.4383 72.8907 93.481 72.592L97.513 48.016C97.5983 47.4187 97.6837 47.056 97.769 46.928C97.897 46.7573 98.025 46.672 98.153 46.672C98.3237 46.672 98.6437 46.8213 99.113 47.12C99.5823 47.4187 100.18 47.7173 100.905 48.016C101.63 48.272 102.42 48.4 103.273 48.4Z" fill="#1B1A18"/>
</svg>
